<svg width="281" height="321" viewBox="0 0 281 321" fill="none" xmlns="http://www.w3.org/2000/svg">
<path id='a' fill-rule="evenodd" clip-rule="evenodd" d="M134.596 227.943C133.304 227.332 129.568 227.151 128.388 228.18C123.94 233.127 120.094 236.915 115.986 242.129C112.777 246.203 109.161 249.188 103.97 247.672C81.1635 241.02 57.4862 233.215 34.8329 227.407C29.4102 226.265 21.0395 227.727 16.1915 229.315C11.0448 231.136 9.66353 231.824 5.14619 236.159C-1.60315 242.651 -0.0671387 251.347 8.38753 255.359C11.1955 256.688 14.3302 257.399 17.3728 258.168C57.6088 268.315 96.3062 281.729 129.47 308.005C135.478 312.768 143.146 316.027 150.564 318.288C164.073 322.412 175.406 315.965 177.318 303.283C178.306 296.736 178.309 289.573 176.738 283.188C170.606 258.261 159.037 238.857 134.596 227.943Z" fill="#F1CBB6"/>
<path fill-rule="evenodd" clip-rule="evenodd" d="M141.322 147.822C139.327 145.452 137.308 144.522 135.039 143.98C122.659 141.035 114.99 132.395 108.116 122.604C93.8376 102.267 79.8709 81.6882 64.9669 61.8149C60.2523 55.5282 54.0349 50.5402 46.7829 46.0242C44.8349 44.8095 44.3736 44.6349 40.1003 43.4669C30.6736 40.8949 26.4669 47.5255 28.9829 56.8229C30.6136 62.8642 33.8576 68.5415 37.2776 73.7775C56.7723 103.66 76.6469 133.29 96.1629 163.154C101.343 171.083 105.554 179.636 110.504 187.724C114.783 194.71 117.127 194.535 121.147 187.283C127.915 175.056 134.6 162.784 141.322 150.534C141.84 149.662 141.696 148.7 141.322 147.822Z" fill="#F1CBB6"/>
<path fill-rule="evenodd" clip-rule="evenodd" d="M98.1237 22.3191C103.301 39.0284 128.514 107.812 133.697 124.508C135.941 131.734 135.386 139.858 135.921 147.591C136.108 150.274 135.622 152.996 135.66 155.698C135.766 162.842 137.481 164.411 146.556 164.124C157.998 162.558 168.732 155.95 177.82 146.427C180.829 143.271 181.009 139.395 178.338 135.903C167.217 121.338 160.749 104.548 154.186 87.6537C146.884 68.8551 138.369 50.5337 130.425 31.9857C128.512 27.5137 126.521 23.3884 124.097 18.9111C120.869 12.9431 115.626 7.36841 109.864 4.19374C105.154 1.59641 99.5424 4.37508 97.9944 9.69641C96.8251 13.7177 96.8251 18.5191 98.1237 22.3191Z" fill="#F1CBB6"/>
<path fill-rule="evenodd" clip-rule="evenodd" d="M193.82 167.208C206.203 168.467 219.986 160.258 226.355 150.074C230.41 143.584 230.12 139.595 224.266 134.786C218.623 130.146 216.012 124.35 215.487 117.207C213.739 93.3549 212.478 69.4443 209.704 45.7149C208.53 35.6576 205.694 25.1203 201.402 16.3549C199.136 11.7389 193.823 8.1936 187.875 10.1603C182.26 12.0189 180.832 16.9576 181.078 22.2109C181.566 32.5709 182.678 42.9056 183.03 53.2749C184.036 82.7816 186.654 112.326 180.143 141.651C176.319 158.887 176.502 167.208 193.82 167.208Z" fill="#F1CBB6"/>
<path fill-rule="evenodd" clip-rule="evenodd" d="M264.818 144.592C263.244 126.582 271.479 108.184 274.663 88.9256C276.271 79.2096 276.747 69.2536 276.978 59.3896C277.115 53.4016 274.307 48.0203 267.927 46.6216C261.811 45.2816 256.708 48.8829 254.916 54.1563C251.171 65.1736 248.476 76.5736 245.755 87.9109C242.81 100.17 240.232 112.52 237.678 124.872C236.371 131.183 233.242 135.368 226.758 137.223C220.923 138.894 219.382 142.619 222.834 147.395C230.902 158.556 242.094 165.703 255.12 169.672C260.83 171.412 264.25 168.258 264.744 161.576C265.11 156.638 264.818 151.64 264.818 144.592Z" fill="#F1CBB6"/>
<path fill-rule="evenodd" clip-rule="evenodd" d="M223.233 137.289C209.826 137.289 146.233 140.02 134.428 144.673C111.326 153.781 104.246 169.442 111.056 193.081C115.064 206.993 115.096 220.604 112.826 235.133C112.405 239.206 112.193 240.348 112.326 244.536C112.785 258.902 121.864 275.157 126.766 288.676C132.662 304.924 139.485 317.574 158.449 319.854C166.133 319.854 176.169 320.205 183.85 320.205C190.936 319.248 198.021 318.29 205.104 317.326C239.452 311.062 269.358 302.445 280.126 264.606C280.804 257.736 280.502 251.772 279.373 244.253C279.081 242.916 279.062 241.805 278.836 240.521C274.59 216.556 270.001 192.641 266.293 168.592C263.742 152.046 253.996 143.114 238.585 139.372C233.596 138.161 228.373 137.794 223.233 137.289Z" fill="#F1CBB6"/>
</svg>
